<svg xmlns="http://www.w3.org/2000/svg" width="50" height="42.67"><defs><style>.cls-1{fill:none;stroke:#fff;stroke-linecap:round;stroke-linejoin:round;stroke-width:2.7px}</style></defs><g id="Layer_2" data-name="Layer 2"><g id="Shopping-1-iStock"><path class="cls-1" d="M40.85 34.33H20.12a3.75 3.75 0 0 1-3.61-2.77L9.07 3.8a3.65 3.65 0 0 0-3.52-2.7H1V1h4.55a3.76 3.76 0 0 1 3.62 2.77l7.43 27.76a3.66 3.66 0 0 0 3.52 2.7h20.73Z"/><path class="cls-1" d="M15.81 28.74H42.7a1.83 1.83 0 0 0 1.78-1.37l4.46-16.61a1.86 1.86 0 0 0-1.79-2.33H10.36ZM23.81 38a3.69 3.69 0 1 1-3.69-3.69A3.7 3.7 0 0 1 23.81 38ZM44.55 38a3.7 3.7 0 1 1-3.7-3.69 3.7 3.7 0 0 1 3.7 3.69Z"/></g></g></svg>