<svg width="44" height="44" viewBox="0 0 44 44" fill="none" xmlns="http://www.w3.org/2000/svg">
<path d="M37.125 12.375H6.875C6.11561 12.375 5.5 12.9906 5.5 13.75V35.75C5.5 36.5094 6.11561 37.125 6.875 37.125H37.125C37.8844 37.125 38.5 36.5094 38.5 35.75V13.75C38.5 12.9906 37.8844 12.375 37.125 12.375Z" stroke="#E74072" stroke-width="2" stroke-linecap="round" stroke-linejoin="round"/>
<path d="M28.875 12.375V9.625C28.875 8.89565 28.5853 8.19618 28.0695 7.68046C27.5538 7.16473 26.8543 6.875 26.125 6.875H17.875C17.1457 6.875 16.4462 7.16473 15.9305 7.68046C15.4147 8.19618 15.125 8.89565 15.125 9.625V12.375" stroke="#E74072" stroke-width="2" stroke-linecap="round" stroke-linejoin="round"/>
<path d="M38.5 21.7078C33.4852 24.608 27.7931 26.1318 22 26.125C16.2058 26.14 10.5117 24.6157 5.5 21.7078" stroke="#E74072" stroke-width="2" stroke-linecap="round" stroke-linejoin="round"/>
<path d="M19.9375 20.625H24.0625" stroke="#E74072" stroke-width="2" stroke-linecap="round" stroke-linejoin="round"/>
</svg>
