<svg width="44" height="44" viewBox="0 0 44 44" fill="none" xmlns="http://www.w3.org/2000/svg">
<path d="M15.401 28.6001L28.601 15.4001M16.4165 16.4073L16.3905 16.3811M27.6191 27.7251L27.5931 27.6989M21.0823 6.66985L17.5542 4.7171C16.7792 4.28815 15.8178 4.62801 15.4527 5.46L13.7905 9.24759C13.5741 9.74052 13.1319 10.0846 12.6172 10.1604L8.66233 10.7433C7.79358 10.8713 7.20737 11.7356 7.38091 12.6325L8.17092 16.7156C8.27373 17.247 8.10991 17.7964 7.73626 18.1733L4.86518 21.0691C4.23451 21.7052 4.24737 22.7638 4.89329 23.383L7.83377 26.2021C8.21645 26.5689 8.39357 27.1138 8.30369 27.6478L7.6131 31.7505C7.4614 32.6517 8.06842 33.5002 8.94 33.6052L12.9078 34.0834C13.4242 34.1456 13.8746 34.4779 14.1028 34.965L15.8565 38.7074C16.2417 39.5295 17.211 39.8439 17.9753 39.3946L21.4549 37.3493C21.9077 37.0831 22.4594 37.0758 22.9185 37.3299L26.4466 39.2827C27.2216 39.7117 28.183 39.3718 28.5481 38.5398L30.2103 34.7522C30.4266 34.2593 30.8688 33.9152 31.3835 33.8394L35.3384 33.2565C36.2072 33.1285 36.7934 32.2642 36.6199 31.3673L35.8299 27.2842C35.727 26.7528 35.8909 26.2034 36.2645 25.8265L39.1356 22.9307C39.7663 22.2946 39.7534 21.236 39.1075 20.6168L36.167 17.7977C35.7843 17.4309 35.6072 16.886 35.6971 16.352L36.3877 12.2493C36.5394 11.3481 35.9324 10.4996 35.0608 10.3946L31.093 9.91638C30.5766 9.85415 30.1262 9.52188 29.898 9.03482L28.1443 5.29236C27.7591 4.47028 26.7898 4.15592 26.0254 4.6052L22.5459 6.65052C22.0931 6.9167 21.5414 6.92399 21.0823 6.66985Z" stroke="#E74072" stroke-width="2" stroke-linecap="round"/>
</svg>
