<svg width="30" height="30" viewBox="0 0 30 30" fill="none" xmlns="http://www.w3.org/2000/svg">
<g clip-path="url(#clip0_7607_7775)">
<path d="M14.9999 0C23.2847 0 30 6.71625 30 15.0001C30 23.2848 23.2847 30 14.9999 30C6.71522 30 0 23.2847 0 15.0001C0 6.71625 6.71532 0 14.9999 0Z" fill="#3B5998"/>
<path d="M16.8263 10.3266H18.7594V7.47095H16.4869V7.48125C13.7335 7.57877 13.1691 9.12656 13.1194 10.7522H13.1137V12.1782H11.2388V14.9747H13.1137V22.4709H15.9394V14.9747H18.2541L18.7012 12.1782H15.9403V11.3166C15.9403 10.7672 16.3059 10.3266 16.8263 10.3266Z" fill="white"/>
</g>
<defs>
<clipPath id="clip0_7607_7775">
<rect width="30" height="30" fill="white"/>
</clipPath>
</defs>
</svg>
