<svg width="30" height="30" viewBox="0 0 30 30" fill="none" xmlns="http://www.w3.org/2000/svg">
<path d="M11.3821 6.97243L12.2257 7.65409C13.6038 8.76762 13.7778 10.8 12.6091 12.1319L12.492 12.2654C11.6545 13.2199 11.431 14.6297 12.2677 15.5839C13.0679 16.4965 14.1418 17.2994 15.7018 18.1741C16.932 18.8639 18.4701 18.5366 19.3999 17.4769L19.4814 17.3841C20.5898 16.1209 22.5013 15.957 23.8083 17.013L24.5912 17.6456C25.7141 18.553 26.105 20.1366 25.2978 21.3331C24.536 22.4623 23.6863 23.3457 22.6833 24.0678C22.0435 24.5284 21.2193 24.6308 20.4577 24.4262C13.0113 22.4266 8.5066 18.7936 5.27492 12.0646C4.99353 11.4787 4.90139 10.805 5.12957 10.1962C5.61153 8.91029 6.51287 7.82731 7.90607 6.79112C8.9454 6.01813 10.3753 6.15899 11.3821 6.97243Z" stroke="#0A0A0A" stroke-width="1.5"/>
<path d="M19.6108 17.7854L24.7688 21.9531" stroke="#0A0A0A" stroke-width="1.5"/>
<path d="M7.57568 8.06079L12.7336 12.2285" stroke="#0A0A0A" stroke-width="1.5"/>
</svg>
