<svg width="34" height="34" viewBox="0 0 34 34" fill="none" xmlns="http://www.w3.org/2000/svg">
<path d="M10.7605 29.2348C10.3675 29.3658 10.1552 29.7906 10.2861 30.1835C10.4171 30.5765 10.8419 30.7888 11.2348 30.6579L10.7605 29.2348ZM19.8246 30.5348L19.7565 29.7879L19.8246 30.5348ZM25.1207 29.3579L25.4497 30.0319L25.1207 29.3579ZM30.1813 24.7543L29.5985 24.2823L30.1813 24.7543ZM26.7202 21.8739L27.2505 22.4042L26.7202 21.8739ZM24.3895 24.2045L24.9198 24.7348L24.3895 24.2045ZM18.0592 24.4887C17.645 24.4887 17.3092 24.8244 17.3092 25.2387C17.3092 25.6529 17.645 25.9887 18.0592 25.9887V24.4887ZM29.6432 21.5844L29.2272 22.2085L29.6432 21.5844ZM12.7889 20.8123L13.1243 21.4831L12.7889 20.8123ZM19.1236 20.2328L19.3209 19.5092L19.1236 20.2328ZM21.5974 20.9075L21.4001 21.631L21.5974 20.9075ZM22.3812 23.859L21.8509 23.3286V23.3286L22.3812 23.859ZM20.4712 24.7083C20.1783 25.0012 20.1783 25.4761 20.4712 25.769C20.7641 26.0619 21.2389 26.0619 21.5318 25.769L20.4712 24.7083ZM11.2348 30.6579C11.5301 30.5594 11.9955 30.5288 12.6545 30.5758C13.2982 30.6217 14.0396 30.7335 14.8534 30.8613C16.4368 31.11 18.3079 31.4261 19.8926 31.2817L19.7565 29.7879C18.399 29.9116 16.7393 29.6392 15.0861 29.3795C14.2816 29.2531 13.4784 29.1308 12.7612 29.0796C12.0594 29.0296 11.3479 29.039 10.7605 29.2348L11.2348 30.6579ZM19.8926 31.2817C21.0147 31.1795 21.8792 31.1371 22.6916 30.9901C23.5421 30.8362 24.3485 30.5693 25.4497 30.0319L24.7918 28.6839C23.7867 29.1743 23.1121 29.3896 22.4245 29.514C21.6989 29.6454 20.9684 29.6775 19.7565 29.7879L19.8926 31.2817ZM25.4497 30.0319C26.4686 29.5346 27.4807 28.716 28.38 27.8518C29.2866 26.9808 30.1148 26.0281 30.7641 25.2264L29.5985 24.2823C28.9726 25.0551 28.1873 25.9568 27.3407 26.7702C26.4869 27.5906 25.6062 28.2864 24.7918 28.6839L25.4497 30.0319ZM26.1898 21.3435L23.8592 23.6742L24.9198 24.7348L27.2505 22.4042L26.1898 21.3435ZM21.8929 24.4887H18.0592V25.9887H21.8929V24.4887ZM23.8592 23.6742C23.3377 24.1957 22.6304 24.4887 21.8929 24.4887V25.9887C23.0282 25.9887 24.117 25.5377 24.9198 24.7348L23.8592 23.6742ZM30.0592 20.9604C28.843 20.1495 27.2235 20.3099 26.1898 21.3435L27.2505 22.4042C27.7785 21.8761 28.6059 21.7942 29.2272 22.2085L30.0592 20.9604ZM30.7641 25.2264C31.8758 23.8538 31.4709 21.9015 30.0592 20.9604L29.2272 22.2085C29.9625 22.6987 30.1108 23.6497 29.5985 24.2823L30.7641 25.2264ZM4.52458 20.104H9.23227V18.604H4.52458V20.104ZM9.65919 20.531V31.1233H11.1592V20.531H9.65919ZM9.23227 31.5502H4.52458V33.0502H9.23227V31.5502ZM4.09766 31.1233V20.531H2.59766V31.1233H4.09766ZM4.52458 31.5502C4.28879 31.5502 4.09766 31.3591 4.09766 31.1233H2.59766C2.59766 32.1875 3.46037 33.0502 4.52458 33.0502V31.5502ZM9.65919 31.1233C9.65919 31.3591 9.46806 31.5502 9.23227 31.5502V33.0502C10.2965 33.0502 11.1592 32.1875 11.1592 31.1233H9.65919ZM9.23227 20.104C9.46806 20.104 9.65919 20.2952 9.65919 20.531H11.1592C11.1592 19.4668 10.2965 18.604 9.23227 18.604V20.104ZM4.52458 18.604C3.46037 18.604 2.59766 19.4668 2.59766 20.531H4.09766C4.09766 20.2952 4.2888 20.104 4.52458 20.104V18.604ZM11.3331 22.3787L13.1243 21.4831L12.4535 20.1414L10.6622 21.0371L11.3331 22.3787ZM16.4733 20.6925H16.9559V19.1925H16.4733V20.6925ZM18.9263 20.9564L21.4001 21.631L21.7947 20.1839L19.3209 19.5092L18.9263 20.9564ZM21.8509 23.3286L20.4712 24.7083L21.5318 25.769L22.9115 24.3893L21.8509 23.3286ZM21.4001 21.631C22.1522 21.8362 22.4022 22.7773 21.8509 23.3286L22.9115 24.3893C24.2772 23.0236 23.658 20.6921 21.7947 20.1839L21.4001 21.631ZM16.9559 20.6925C17.6215 20.6925 18.2841 20.7812 18.9263 20.9564L19.3209 19.5092C18.5502 19.299 17.7548 19.1925 16.9559 19.1925V20.6925ZM13.1243 21.4831C14.1641 20.9632 15.3107 20.6925 16.4733 20.6925V19.1925C15.0778 19.1925 13.7016 19.5174 12.4535 20.1414L13.1243 21.4831ZM24.9592 11.1156C24.9592 13.3014 23.1873 15.0733 21.0015 15.0733V16.5733C24.0157 16.5733 26.4592 14.1298 26.4592 11.1156H24.9592ZM21.0015 15.0733C18.8157 15.0733 17.0438 13.3014 17.0438 11.1156H15.5438C15.5438 14.1298 17.9873 16.5733 21.0015 16.5733V15.0733ZM17.0438 11.1156C17.0438 8.92981 18.8157 7.15789 21.0015 7.15789V5.65789C17.9873 5.65789 15.5438 8.10138 15.5438 11.1156H17.0438ZM21.0015 7.15789C23.1873 7.15789 24.9592 8.92981 24.9592 11.1156H26.4592C26.4592 8.10138 24.0157 5.65789 21.0015 5.65789V7.15789ZM16.2938 10.3656C14.108 10.3656 12.3361 8.59366 12.3361 6.40789H10.8361C10.8361 9.42209 13.2796 11.8656 16.2938 11.8656V10.3656ZM12.3361 6.40789C12.3361 4.22211 14.108 2.4502 16.2938 2.4502V0.950195C13.2796 0.950195 10.8361 3.39369 10.8361 6.40789H12.3361ZM16.2938 2.4502C18.4796 2.4502 20.2515 4.22211 20.2515 6.40789H21.7515C21.7515 3.39369 19.308 0.950195 16.2938 0.950195V2.4502Z" fill="#E74072"/>
</svg>
