<svg width="34" height="34" viewBox="0 0 34 34" fill="none" xmlns="http://www.w3.org/2000/svg">
<path d="M12.4842 8.15458C12.1667 7.54752 12.0959 6.84124 12.2868 6.18326C12.4777 5.52528 12.9154 4.96651 13.5086 4.62365C14.1017 4.28079 14.8044 4.18037 15.4698 4.34337C16.1353 4.50636 16.712 4.92016 17.0795 5.49833L21.0639 12.3913" stroke="#E74072" stroke-width="1.5" stroke-linecap="round" stroke-linejoin="round"/>
<path d="M8.95201 12.6435L6.82701 8.96464C6.50944 8.35758 6.43872 7.6513 6.6296 6.99332C6.82049 6.33534 7.25822 5.77656 7.85136 5.43371C8.44451 5.09085 9.14718 4.99043 9.81262 5.15342C10.4781 5.31642 11.0548 5.73022 11.4223 6.30839L15.9379 14.131" stroke="#E74072" stroke-width="1.5" stroke-linecap="round" stroke-linejoin="round"/>
<path d="M20.4538 21.9536C20.1038 21.3504 19.8764 20.6841 19.7844 19.9928C19.6925 19.3016 19.7379 18.599 19.918 17.9253C20.0982 17.2516 20.4095 16.6201 20.8342 16.067C21.2589 15.5139 21.7885 15.05 22.3928 14.702L21.0647 12.3911C20.7125 11.78 20.6174 11.0539 20.8005 10.3727C20.9836 9.6915 21.4298 9.11091 22.0409 8.75867C22.652 8.40643 23.3781 8.31139 24.0593 8.49446C24.7405 8.67753 25.3211 9.12371 25.6733 9.73485L28.3296 14.3434C29.7385 16.7845 30.1201 19.6852 29.3903 22.4076C28.6605 25.1299 26.8792 27.4509 24.4382 28.8598C21.9971 30.2688 19.0964 30.6504 16.374 29.9206C13.6517 29.1908 11.3307 27.4095 9.92175 24.9684L4.34363 15.2997C4.16922 14.9971 4.05611 14.6631 4.01078 14.3168C3.96545 13.9705 3.98877 13.6186 4.07941 13.2813C4.26248 12.6001 4.70866 12.0195 5.3198 11.6673C5.93094 11.315 6.65697 11.22 7.33818 11.4031C8.01939 11.5861 8.59998 12.0323 8.95222 12.6434L11.8741 17.7036" stroke="#E74072" stroke-width="1.5" stroke-linecap="round" stroke-linejoin="round"/>
<path d="M10.7711 31.875C8.96643 30.6303 7.46414 28.9964 6.375 27.0938" stroke="#E74072" stroke-width="1.5" stroke-linecap="round" stroke-linejoin="round"/>
<path d="M23.375 4.11721C24.5874 4.11393 25.779 4.43169 26.8287 5.03821C27.8785 5.64473 28.7489 6.51837 29.3516 7.57034" stroke="#E74072" stroke-width="1.5" stroke-linecap="round" stroke-linejoin="round"/>
</svg>
