<svg width="34" height="34" viewBox="0 0 34 34" fill="none" xmlns="http://www.w3.org/2000/svg">
<path d="M2.125 28.6875H31.875" stroke="#E74072" stroke-width="1.5" stroke-linecap="round" stroke-linejoin="round"/>
<path d="M19.125 28.6875V5.3125C19.125 5.03071 19.0131 4.76046 18.8138 4.5612C18.6145 4.36194 18.3443 4.25 18.0625 4.25H5.3125C5.03071 4.25 4.76046 4.36194 4.5612 4.5612C4.36194 4.76046 4.25 5.03071 4.25 5.3125V28.6875" stroke="#E74072" stroke-width="1.5" stroke-linecap="round" stroke-linejoin="round"/>
<path d="M29.75 28.6875V13.8125C29.75 13.5307 29.6381 13.2605 29.4388 13.0612C29.2395 12.8619 28.9693 12.75 28.6875 12.75H19.125" stroke="#E74072" stroke-width="1.5" stroke-linecap="round" stroke-linejoin="round"/>
<path d="M8.5 9.5625H12.75" stroke="#E74072" stroke-width="1.5" stroke-linecap="round" stroke-linejoin="round"/>
<path d="M10.625 18.0625H14.875" stroke="#E74072" stroke-width="1.5" stroke-linecap="round" stroke-linejoin="round"/>
<path d="M8.5 23.375H12.75" stroke="#E74072" stroke-width="1.5" stroke-linecap="round" stroke-linejoin="round"/>
<path d="M23.375 23.375H25.5" stroke="#E74072" stroke-width="1.5" stroke-linecap="round" stroke-linejoin="round"/>
<path d="M23.375 18.0625H25.5" stroke="#E74072" stroke-width="1.5" stroke-linecap="round" stroke-linejoin="round"/>
</svg>
