<svg width="30" height="30" viewBox="0 0 30 30" fill="none" xmlns="http://www.w3.org/2000/svg">
<g clip-path="url(#clip0_7607_7788)">
<path d="M15 30C23.2843 30 30 23.2843 30 15C30 6.71573 23.2843 0 15 0C6.71573 0 0 6.71573 0 15C0 23.2843 6.71573 30 15 30Z" fill="#212121"/>
<path d="M15.5072 7.10522H18.0907C18.3789 9.26049 19.4723 10.6263 21.7618 10.8197V13.3283C20.4236 13.4763 19.2769 12.9473 18.1302 12.2723C18.1302 12.3829 18.1638 15.8092 18.1065 17.4434C18.0493 19.123 17.4493 20.6013 16.1328 21.7046C13.3421 24.0473 9.38087 22.7822 8.43547 19.2C7.92232 17.248 8.36837 15.4894 9.89995 14.098C10.7624 13.3085 11.8263 12.9572 12.9671 12.8111C13.2118 12.7796 13.4585 12.7658 13.723 12.7421V15.3947C13.3874 15.4776 13.048 15.5506 12.7144 15.6493C12.483 15.7161 12.2573 15.8013 12.0394 15.9039C11.7354 16.0406 11.467 16.2455 11.255 16.5026C11.0429 16.7597 10.8929 17.0622 10.8166 17.3867C10.7402 17.7111 10.7396 18.0488 10.8148 18.3735C10.8899 18.6982 11.0388 19.0013 11.2499 19.2592C11.5038 19.6102 11.8491 19.8849 12.2483 20.0533C12.6474 20.2218 13.0851 20.2775 13.5138 20.2144C14.3763 20.1098 14.9171 19.5671 15.2368 18.7875C15.4579 18.1705 15.5538 17.5156 15.519 16.8611C15.5072 13.6401 15.5072 10.421 15.5013 7.19996C15.5015 7.1683 15.5035 7.13668 15.5072 7.10522Z" fill="white"/>
</g>
<defs>
<clipPath id="clip0_7607_7788">
<rect width="30" height="30" fill="white"/>
</clipPath>
</defs>
</svg>
